<svg xmlns="http://www.w3.org/2000/svg" xmlns:xlink="http://www.w3.org/1999/xlink" viewBox="0 0 1600 600" role="img" aria-label="MONY VAULT Audit Report Cover">
  <defs>
    <!-- base gradients -->
    <linearGradient id="mvGrad" x1="0" y1="0" x2="1" y2="1">
      <stop offset="0%" stop-color="#58C3FF"/>
      <stop offset="100%" stop-color="#0090F9"/>
    </linearGradient>
  </defs>

  <!-- background -->
  <rect width="1600" height="600" fill="#FFFFFF"/>
  <rect width="1600" height="600" fill="url(#mvGrad)" opacity="0.05"/>

  <!-- place the external lockup -->
	<svg
   x="120"
   y="145"
   width="223.64024mm"
   height="44.317677mm"
   viewBox="0 0 223.64024 44.317677"
   version="1.1"
   id="svg5"
   xmlns:xlink="http://www.w3.org/1999/xlink"
   xmlns="http://www.w3.org/2000/svg"
   xmlns:svg="http://www.w3.org/2000/svg"
   xmlns:rdf="http://www.w3.org/1999/02/22-rdf-syntax-ns#"
   xmlns:cc="http://creativecommons.org/ns#"
   xmlns:dc="http://purl.org/dc/elements/1.1/">
  <title
     id="title908">Mony Security Brand Package</title>
  <defs
     id="defs2">
    <rect
       x="2080"
       y="-1440"
       width="1440"
       height="640"
       id="rect1699" />
    <linearGradient
       id="linearGradient932">
      <stop
         style="stop-color:#2feff4;stop-opacity:1"
         offset="0"
         id="stop928" />
      <stop
         style="stop-color:#fdfafd;stop-opacity:0"
         offset="1"
         id="stop930" />
    </linearGradient>
    <filter
       style="color-interpolation-filters:sRGB"
       id="filter971"
       x="0"
       y="0"
       width="1"
       height="1">
      <feColorMatrix
         values="0.21 0.72 0.072 0 0 0.21 0.72 0.072 0 0 0.21 0.72 0.072 0 0 0 0 0 1 0 "
         id="feColorMatrix969" />
    </filter>
    <filter
       style="color-interpolation-filters:sRGB"
       id="filter993"
       x="0"
       y="0"
       width="1"
       height="1">
      <feColorMatrix
         values="-1 0 0 0 1 0 -1 0 0 1 0 0 -1 0 1 -0.21 -0.72 -0.07 2 0 "
         result="fbSourceGraphic"
         id="feColorMatrix991" />
      <feColorMatrix
         result="fbSourceGraphicAlpha"
         in="fbSourceGraphic"
         values="0 0 0 -1 0 0 0 0 -1 0 0 0 0 -1 0 0 0 0 1 0"
         id="feColorMatrix1013" />
      <feColorMatrix
         id="feColorMatrix1015"
         values="0.21 0.72 0.072 0 0 0.21 0.72 0.072 0 0 0.21 0.72 0.072 0 0 0 0 0 1 0 "
         in="fbSourceGraphic"
         result="fbSourceGraphic" />
      <feColorMatrix
         result="fbSourceGraphicAlpha"
         in="fbSourceGraphic"
         values="0 0 0 -1 0 0 0 0 -1 0 0 0 0 -1 0 0 0 0 1 0"
         id="feColorMatrix22312" />
      <feColorMatrix
         id="feColorMatrix22314"
         values="-1 0 0 0 1 0 -1 0 0 1 0 0 -1 0 1 -0.21 -0.72 -0.07 2 0 "
         result="color2"
         in="fbSourceGraphic" />
    </filter>
    <rect
       x="2080"
       y="-1440"
       width="1440"
       height="640"
       id="rect1699-8" />
    <linearGradient
       xlink:href="#linearGradient932"
       id="linearGradient21147"
       gradientUnits="userSpaceOnUse"
       gradientTransform="matrix(0.04677217,-0.04677217,0.04677217,0.04677217,952.01648,50.228498)"
       x1="15.214861"
       y1="279.73254"
       x2="12.038723"
       y2="729.41669" />
    <filter
       style="color-interpolation-filters:sRGB"
       id="filter21760"
       x="0"
       y="0"
       width="1"
       height="1">
      <feColorMatrix
         values="0.21 0.72 0.072 0 0 0.21 0.72 0.072 0 0 0.21 0.72 0.072 0 0 0 0 0 1 0 "
         id="feColorMatrix21758" />
    </filter>
    <filter
       style="color-interpolation-filters:sRGB"
       id="filter21782"
       x="0"
       y="0"
       width="1"
       height="1">
      <feColorMatrix
         values="0.21 0.72 0.072 0 0 0.21 0.72 0.072 0 0 0.21 0.72 0.072 0 0 0 0 0 1 0 "
         id="feColorMatrix21780" />
    </filter>
    <filter
       style="color-interpolation-filters:sRGB"
       id="filter22182"
       x="0"
       y="0"
       width="1"
       height="1">
      <feColorMatrix
         values="-1 0 0 0 1 0 -1 0 0 1 0 0 -1 0 1 -0.21 -0.72 -0.07 2 0 "
         result="fbSourceGraphic"
         id="feColorMatrix22180" />
      <feColorMatrix
         result="fbSourceGraphicAlpha"
         in="fbSourceGraphic"
         values="0 0 0 -1 0 0 0 0 -1 0 0 0 0 -1 0 0 0 0 1 0"
         id="feColorMatrix22202" />
      <feColorMatrix
         id="feColorMatrix22204"
         values="0.21 0.72 0.072 0 0 0.21 0.72 0.072 0 0 0.21 0.72 0.072 0 0 0 0 0 1 0 "
         in="fbSourceGraphic"
         result="fbSourceGraphic" />
      <feColorMatrix
         result="fbSourceGraphicAlpha"
         in="fbSourceGraphic"
         values="0 0 0 -1 0 0 0 0 -1 0 0 0 0 -1 0 0 0 0 1 0"
         id="feColorMatrix22224" />
      <feColorMatrix
         id="feColorMatrix22226"
         values="-1 0 0 0 1 0 -1 0 0 1 0 0 -1 0 1 -0.21 -0.72 -0.07 2 0 "
         result="color2"
         in="fbSourceGraphic" />
    </filter>
    <filter
       style="color-interpolation-filters:sRGB"
       id="filter22248"
       x="0"
       y="0"
       width="1"
       height="1">
      <feColorMatrix
         values="-1 0 0 0 1 0 -1 0 0 1 0 0 -1 0 1 -0.21 -0.72 -0.07 2 0 "
         result="fbSourceGraphic"
         id="feColorMatrix22246" />
      <feColorMatrix
         result="fbSourceGraphicAlpha"
         in="fbSourceGraphic"
         values="0 0 0 -1 0 0 0 0 -1 0 0 0 0 -1 0 0 0 0 1 0"
         id="feColorMatrix22268" />
      <feColorMatrix
         id="feColorMatrix22270"
         values="0.21 0.72 0.072 0 0 0.21 0.72 0.072 0 0 0.21 0.72 0.072 0 0 0 0 0 1 0 "
         in="fbSourceGraphic"
         result="fbSourceGraphic" />
      <feColorMatrix
         result="fbSourceGraphicAlpha"
         in="fbSourceGraphic"
         values="0 0 0 -1 0 0 0 0 -1 0 0 0 0 -1 0 0 0 0 1 0"
         id="feColorMatrix22290" />
      <feColorMatrix
         id="feColorMatrix22292"
         values="-1 0 0 0 1 0 -1 0 0 1 0 0 -1 0 1 -0.21 -0.72 -0.07 2 0 "
         result="color2"
         in="fbSourceGraphic" />
    </filter>
  </defs>
  <g
     id="layer2"
     transform="translate(-953.67013,-51.882138)">
    <g
       id="g1443">
      <path
         id="rect846-1-2"
         style="fill:url(#linearGradient21147);stroke-width:2.85768"
         d="m 975.82898,51.882138 -22.15885,22.15886 22.15885,22.158818 22.15901,-22.158818 z" />
      <g
         aria-label="MONY VAULT"
         transform="matrix(0.52916666,0,0,0.52916666,-100.15139,820.34517)"
         id="text1697-3-4"
         style="font-weight:bold;font-size:53.3333px;line-height:1.25;font-family:Didot;-inkscape-font-specification:'Didot, Bold';white-space:pre;shape-inside:url(#rect1699-8)">
        <path
           d="m 2089.0133,-1416.072 q -0.8533,6.1334 -1.28,12.1067 -0.4266,5.9733 -0.8533,11.9467 -0.64,-0.1067 -1.28,-0.1067 -0.64,0 -1.2267,0 -0.64,0 -1.28,0 -0.5866,0 -1.2266,0.1067 1.7066,-9.1734 3.04,-18.24 1.3333,-9.0667 2.4533,-18.4 0.5867,0.1066 1.0667,0.2133 0.5333,0.053 1.12,0.053 0.48,0 1.0133,-0.053 0.5333,-0.1067 1.12,-0.2133 1.44,3.2 2.9867,6.5066 1.6,3.3067 3.1466,6.6134 1.6,3.2533 3.1467,6.4 1.6,3.1466 3.04,5.9733 3.2,-5.9733 6.3466,-12.48 3.2,-6.56 6.08,-13.0133 1.3334,0.2666 2.2934,0.2666 0.9066,0 2.24,-0.2666 0.5333,4.5866 1.12,9.8666 0.64,5.28 1.2266,10.3467 0.5867,5.0133 1.1734,9.3867 0.5866,4.3733 1.0666,7.04 -1.0666,-0.1067 -2.1866,-0.1067 -1.0667,0 -2.1334,0 -1.0666,0 -2.1866,0 -1.12,0 -2.24,0.1067 -0.2667,-5.4934 -0.9067,-11.8934 -0.5867,-6.4 -1.2267,-12.6933 h -0.1066 q -3.04,6.2933 -5.9734,12.3733 -2.9333,6.08 -5.8133,12.2134 -0.2666,-0.053 -0.5333,-0.1067 -0.2133,0 -0.48,0 -0.2667,0 -0.5333,0 -0.2134,0.053 -0.48,0.1067 -2.88,-5.9734 -5.76,-11.9467 -2.8267,-5.9733 -5.8667,-12.1067 z"
           style="font-family:Optima;-inkscape-font-specification:'Optima Bold'"
           id="path21001-8" />
        <path
           d="m 2161.2091,-1411.432 q 0,-3.4666 -0.8533,-6.1866 -0.8533,-2.7734 -2.4,-4.6934 -1.4933,-1.92 -3.68,-2.9333 -2.1333,-1.0667 -4.6933,-1.0667 -2.72,0 -4.9067,1.3334 -2.1333,1.28 -3.6267,3.52 -1.4933,2.24 -2.2933,5.28 -0.7467,2.9866 -0.7467,6.4 0,4.2666 0.9067,7.2 0.9067,2.9333 2.4533,4.7466 1.5467,1.76 3.5734,2.56 2.0266,0.8 4.2666,0.8 2.4,0 4.5867,-1.0133 2.1867,-1.0133 3.7867,-3.0933 1.6533,-2.08 2.6133,-5.28 1.0133,-3.2 1.0133,-7.5734 z m -31.9466,1.1734 q 0,-3.9467 1.44,-7.4134 1.4933,-3.4666 4.16,-6.08 2.6666,-2.6133 6.4533,-4.1066 3.7867,-1.4934 8.4267,-1.4934 4.2666,0 7.9466,1.1734 3.68,1.1733 6.4,3.52 2.72,2.3466 4.2667,5.9733 1.6,3.5733 1.6,8.3733 0,4 -1.5467,7.4667 -1.4933,3.4667 -4.2133,6.08 -2.6667,2.56 -6.4,4 -3.7333,1.44 -8.2133,1.44 -4.2134,0 -7.9467,-1.0133 -3.68,-1.0667 -6.4533,-3.36 -2.72,-2.3467 -4.32,-5.92 -1.6,-3.6267 -1.6,-8.64 z"
           style="font-family:Optima;-inkscape-font-specification:'Optima Bold'"
           id="path21003-3" />
        <path
           d="m 2177.1016,-1418.0453 q 0,-3.68 -0.1067,-6.1867 -0.1066,-2.5066 -0.16,-4.4266 1.4934,0.2666 2.4,0.2666 0.9067,0 2.4,-0.2666 5.8134,6.4533 11.4667,12.6933 5.7067,6.24 11.68,12.6933 v -4.64 -5.1733 q 0,-2.6133 -0.053,-5.12 0,-2.56 -0.053,-4.6933 0,-2.1334 -0.1066,-3.68 -0.053,-1.5467 -0.16,-2.08 1.4933,0.2666 2.4,0.2666 0.9066,0 2.4,-0.2666 -0.2667,4.8533 -0.4267,8.8 -0.16,3.8933 -0.2667,7.36 -0.1066,3.4666 -0.16,6.88 0,3.36 0,7.2 v 6.4 q -1.0666,-0.1067 -2.1866,-0.1067 -1.1734,0 -2.08,0.1067 -10.9867,-12.8 -23.3067,-25.76 -0.053,1.5466 -0.1067,3.0933 0,1.5467 0,3.1467 v 6.1866 q 0,3.2 0,5.44 0.053,2.24 0.1067,3.7867 0.053,1.5467 0.1067,2.56 0.053,0.96 0.1066,1.5467 -0.64,-0.1067 -1.28,-0.1067 -0.64,0 -1.2266,0 -1.2267,0 -2.4534,0.1067 0.1067,-0.4267 0.2667,-3.04 0.16,-2.6134 0.32,-6.3467 0.2133,-3.7867 0.32,-8.16 0.16,-4.4267 0.16,-8.48 z"
           style="font-family:Optima;-inkscape-font-specification:'Optima Bold'"
           id="path21005-9" />
        <path
           d="m 2232.1599,-1412.6586 q 1.0667,-1.5467 2.1333,-3.4667 1.0667,-1.9733 2.08,-4.1067 1.0134,-2.1333 1.9734,-4.2666 0.96,-2.1867 1.8666,-4.16 0.5867,0.1066 1.1734,0.2133 0.64,0.053 1.28,0.053 0.64,0 1.2266,-0.053 0.64,-0.1067 1.3334,-0.2133 -0.9067,1.4933 -2.2934,3.9466 -1.3333,2.4 -2.88,5.2267 -1.5466,2.8267 -3.1466,5.8133 -1.5467,2.9334 -2.8267,5.44 0,1.28 -0.053,2.6134 -0.053,1.28 -0.053,2.6133 0,2.72 0.053,5.3867 0.1066,2.6666 0.48,5.6 -1.12,-0.1067 -2.2934,-0.1067 -1.12,0 -2.24,0 -1.12,0 -2.2933,0 -1.12,0 -2.24,0.1067 0.1067,-2.4534 0.3733,-5.0134 0.2667,-2.56 0.2667,-5.12 0,-1.2266 -0.053,-2.4533 0,-1.28 -0.053,-2.5067 -1.3333,-2.6666 -3.0933,-5.92 -1.7067,-3.3066 -3.36,-6.4 -1.6,-3.0933 -2.9866,-5.6 -1.3334,-2.5066 -1.9734,-3.6266 1.2267,0.1066 2.4,0.2133 1.1733,0.053 2.4,0.053 1.2267,0 2.3467,-0.053 1.1733,-0.1067 2.4,-0.2133 0.9066,1.9733 2.0266,4.3733 1.1734,2.4 2.2934,4.6933 1.12,2.2934 2.08,4.16 0.96,1.8667 1.5466,2.7734 h 0.1067 z"
           style="font-family:Optima;-inkscape-font-specification:'Optima Bold'"
           id="path21007-6" />
        <path
           d="m 2275.8824,-1401.8853 q 2.7733,-6.7733 5.3867,-13.6 2.6133,-6.88 4.6933,-13.1733 1.3333,0.2666 2.3467,0.2666 1.0133,0 2.3466,-0.2666 -1.3333,3.1466 -3.2,7.5733 -1.8666,4.4267 -3.8933,9.3867 -2.0267,4.96 -4,10.08 -1.9733,5.12 -3.52,9.6 -1.0667,-0.1067 -2.3467,-0.1067 -1.28,0 -2.3466,0.1067 -0.8,-2.1334 -1.9734,-5.1734 -1.12,-3.04 -2.4533,-6.4533 -1.28,-3.4133 -2.72,-6.9867 -1.44,-3.5733 -2.7733,-6.88 -1.3333,-3.36 -2.5067,-6.24 -1.1733,-2.88 -2.0266,-4.9066 1.2266,0.1066 2.4,0.2133 1.2266,0.053 2.4,0.053 1.1733,0 2.3466,-0.053 1.1734,-0.1067 2.3467,-0.2133 0.9066,2.9866 2.0266,6.2933 1.1734,3.3067 2.4,6.7733 1.2267,3.4134 2.5067,6.88 1.3333,3.4667 2.56,6.8267 z"
           style="font-family:Optima;-inkscape-font-specification:'Optima Bold'"
           id="path21009-4" />
        <path
           d="m 2304.3757,-1418.632 q -1.3867,3.2 -2.6133,6.3467 -1.2267,3.0933 -2.4,6.3467 h 9.76 q -1.1734,-3.2534 -2.3467,-6.3467 -1.12,-3.1467 -2.4,-6.3467 z m 18.88,26.6134 q -1.28,-0.1067 -2.4534,-0.1067 -1.12,0 -2.24,0 -1.12,0 -2.2933,0 -1.12,0 -2.24,0.1067 -0.8533,-2.6134 -1.76,-5.3334 -0.9066,-2.72 -1.92,-5.44 -1.7066,-0.053 -3.4133,-0.053 -1.7067,-0.053 -3.4133,-0.053 -1.3867,0 -2.7734,0.053 -1.3866,0 -2.7733,0.053 -1.0667,2.72 -1.9733,5.44 -0.9067,2.72 -1.6534,5.3334 -0.64,-0.1067 -1.28,-0.1067 -0.5866,0 -1.2266,0 -0.64,0 -1.28,0 -0.64,0 -1.3867,0.1067 0.64,-1.3867 1.7067,-3.84 1.0666,-2.4534 2.3466,-5.5467 1.28,-3.0933 2.72,-6.6133 1.4934,-3.5734 2.9334,-7.2 1.4933,-3.6267 2.88,-7.1467 1.44,-3.52 2.6133,-6.56 0.5333,0.1067 1.0133,0.2133 0.48,0.053 1.0134,0.053 0.5333,0 1.0133,-0.053 0.48,-0.1066 1.0133,-0.2133 1.7067,4.5333 3.6267,9.7067 1.9733,5.1733 3.9466,10.1866 1.9734,4.96 3.84,9.44 1.8667,4.48 3.4134,7.5734 z"
           style="font-family:Optima;-inkscape-font-specification:'Optima Bold'"
           id="path21011-7" />
        <path
           d="m 2343.4424,-1391.3253 q -3.4134,0 -6.4,-0.7467 -2.9334,-0.6933 -5.12,-2.3466 -2.1867,-1.7067 -3.4667,-4.32 -1.2267,-2.6667 -1.2267,-6.4534 0,-2.1333 0,-3.7866 0.053,-1.7067 0.053,-3.1467 0,-1.44 0,-2.7733 0.053,-1.3334 0.053,-2.7734 0,-4.32 -0.053,-6.9866 -0.053,-2.6667 -0.16,-4 1.0666,0.1066 2.1866,0.2133 1.12,0.053 2.1867,0.053 1.0667,0 2.1867,-0.053 1.12,-0.1067 2.1866,-0.2133 -0.5333,5.1733 -0.64,9.6533 -0.1066,4.4267 -0.1066,9.0133 0,4.8534 0.6933,7.84 0.6933,2.9867 2.0267,4.64 1.3866,1.6 3.36,2.1334 1.9733,0.5333 4.5866,0.5333 3.2,0 5.0134,-1.6 1.8133,-1.6 2.72,-4.2667 0.96,-2.6666 1.1733,-6.08 0.2133,-3.4666 0.2133,-7.2 0,-3.68 -0.1066,-7.3066 -0.1067,-3.68 -0.32,-7.36 0.7466,0.1066 1.44,0.2133 0.6933,0.053 1.28,0.053 0.6933,0 1.3333,-0.053 0.64,-0.1067 1.3333,-0.2133 -0.1066,1.1733 -0.2133,3.1466 -0.1067,1.9734 -0.2133,4.5867 -0.1067,2.56 -0.2134,5.7067 -0.053,3.0933 -0.053,6.56 0,9.28 -4,13.3333 -4,4 -11.7333,4 z"
           style="font-family:Optima;-inkscape-font-specification:'Optima Bold'"
           id="path21013-7" />
        <path
           d="m 2368.6007,-1413.8853 q 0,-4.4267 -0.1067,-7.84 -0.1067,-3.4667 -0.32,-6.9333 0.9067,0.1066 1.9733,0.2133 1.0667,0.053 2.4,0.053 1.3334,0 2.4,-0.053 1.0667,-0.1067 1.9734,-0.2133 -0.2134,3.4666 -0.32,6.9333 -0.1067,3.4133 -0.1067,7.84 v 7.2533 q 0,3.04 0,5.8667 0.053,2.8267 0.1067,4.9067 3.04,0 6.08,-0.16 3.04,-0.16 6.1333,-0.5334 -0.1067,0.5867 -0.16,1.0667 -0.053,0.48 -0.053,1.3333 0,0.8534 0.053,1.3334 0.053,0.48 0.16,0.8 -1.44,-0.053 -3.5733,-0.1067 -2.08,0 -5.76,0 -3.2534,0 -5.28,0 -1.9734,0 -3.2,0 -1.1734,0 -1.8134,0 -0.5866,0.053 -1.0133,0.1067 0.2133,-3.3067 0.32,-6.72 0.1067,-3.4667 0.1067,-7.8934 z"
           style="font-family:Optima;-inkscape-font-specification:'Optima Bold'"
           id="path21015-3" />
        <path
           d="m 2396.6073,-1419.9653 q 0,-1.5467 -0.053,-2.8267 0,-1.28 -0.1067,-1.8666 -0.8,0 -1.9733,0.053 -1.1733,0.053 -2.5067,0.16 -1.3333,0.053 -2.7199,0.2133 -1.3867,0.1067 -2.56,0.2667 0.1066,-0.5867 0.16,-1.1733 0.1066,-0.5867 0.1066,-1.1734 0,-0.5866 -0.1066,-1.1733 -0.053,-0.5867 -0.16,-1.1733 1.8133,0.053 3.2533,0.1066 1.4933,0.053 2.9866,0.1067 1.5467,0 3.3067,0.053 1.8133,0 4.32,0 2.5067,0 4.2667,0 1.8133,-0.053 3.3066,-0.053 1.4934,-0.053 2.88,-0.1067 1.44,-0.053 3.0934,-0.1066 -0.1067,0.5866 -0.2134,1.1733 -0.053,0.5867 -0.053,1.1733 0,0.5867 0.053,1.1734 0.1067,0.5866 0.2134,1.1733 -1.0667,-0.16 -2.4,-0.2667 -1.3334,-0.16 -2.6667,-0.2133 -1.28,-0.1067 -2.4533,-0.16 -1.1734,-0.053 -1.9734,-0.053 -0.053,0.2666 -0.1066,0.7466 0,0.48 0,1.12 v 2.8267 13.3333 q 0,4.4267 0.1066,7.8934 0.1067,3.4133 0.32,6.72 -0.9066,-0.1067 -1.9733,-0.1067 -1.0667,0 -2.4,0 -1.3333,0 -2.4,0 -1.0667,0 -1.9733,0.1067 0.2133,-3.3067 0.32,-6.72 0.1066,-3.4667 0.1066,-7.8934 v -13.3333 z"
           style="font-family:Optima;-inkscape-font-specification:'Optima Bold'"
           id="path21017-1" />
      </g>
    </g>
  </g>
  <metadata
     id="metadata906">
    <rdf:RDF>
      <cc:Work
         rdf:about="">
        <dc:title>Mony Security Brand Package</dc:title>
      </cc:Work>
    </rdf:RDF>
  </metadata>
</svg>


  <!-- report text -->
  <g font-family="Space Grotesk, Inter, Helvetica, Arial, sans-serif" fill="#0E1218">
    <text x="120" y="340" font-size="48" font-weight="700" fill="#0090F9">Mony Vault Audit Report</text>
  </g>

  <!-- divider -->
  <rect x="0" y="560" width="1600" height="2" fill="url(#mvGrad)"/>
</svg>

